<?xml version="1.0" standalone="no"?>
<!DOCTYPE svg PUBLIC "-//W3C//DTD SVG 20010904//EN"
 "http://www.w3.org/TR/2001/REC-SVG-20010904/DTD/svg10.dtd">
<svg version="1.0" xmlns="http://www.w3.org/2000/svg"
 width="300.000000pt" height="114.000000pt" viewBox="0 0 300.000000 114.000000"
 preserveAspectRatio="xMidYMid meet">

<g transform="translate(0.000000,114.000000) scale(0.100000,-0.100000)"
fill="#000000" stroke="none">
<path d="M477 1118 c-31 -29 -477 -966 -477 -1003 0 -34 24 -80 52 -99 20 -14
102 -16 695 -16 l673 0 0 570 0 570 -459 0 -460 0 -24 -22z"/>
<path d="M1580 570 l0 -560 463 0 464 0 20 22 c18 21 453 926 467 974 8 28
-21 101 -45 114 -11 6 -276 10 -693 10 l-676 0 0 -560z"/>
</g>
</svg>
