<?xml version="1.0" standalone="no"?>
<!DOCTYPE svg PUBLIC "-//W3C//DTD SVG 20010904//EN"
 "http://www.w3.org/TR/2001/REC-SVG-20010904/DTD/svg10.dtd">
<svg version="1.0" xmlns="http://www.w3.org/2000/svg"
 width="596.000000pt" height="84.000000pt" viewBox="0 0 596.000000 84.000000"
 preserveAspectRatio="xMidYMid meet">

<g transform="translate(0.000000,84.000000) scale(0.100000,-0.100000)"
fill="#000000" stroke="none">
<path d="M345 814 c-14 -15 -25 -30 -25 -34 0 -4 -43 -99 -96 -211 -214 -452
-214 -453 -214 -493 0 -21 8 -40 23 -54 23 -22 24 -22 510 -22 l487 0 0 420 0
420 -330 0 -331 0 -24 -26z"/>
<path d="M2692 742 c-76 -28 -122 -69 -162 -147 -34 -66 -35 -71 -35 -184 0
-107 2 -120 27 -167 28 -52 78 -103 126 -127 83 -43 203 -45 291 -6 46 20 111
74 111 92 0 6 -17 24 -37 42 l-37 32 -26 -25 c-78 -75 -213 -69 -276 13 -14
18 -28 49 -31 69 l-6 36 218 0 218 0 -6 78 c-9 109 -30 171 -77 224 -68 78
-193 107 -298 70z m166 -122 c35 -21 62 -72 62 -115 l0 -25 -140 0 c-158 0
-156 -1 -120 77 35 77 127 106 198 63z"/>
<path d="M3423 749 c-17 -5 -44 -23 -60 -39 l-28 -30 -5 32 -5 33 -70 0 -70 0
0 -325 0 -325 73 -3 72 -3 0 229 c0 228 0 229 24 255 28 30 97 51 143 44 l33
-6 0 69 c0 83 -18 95 -107 69z"/>
<path d="M3780 744 c-85 -23 -170 -103 -170 -160 0 -23 3 -24 69 -24 59 0 71
3 75 18 18 56 118 90 176 60 31 -16 60 -72 60 -114 l0 -31 -112 -5 c-84 -4
-125 -10 -158 -25 -109 -49 -156 -160 -111 -258 58 -125 223 -163 345 -80 30
20 38 22 41 10 3 -8 7 -22 10 -30 3 -12 22 -15 80 -15 75 0 76 1 69 23 -20 61
-24 107 -24 287 0 168 -3 201 -19 236 -23 52 -70 87 -140 108 -66 19 -118 19
-191 0z m210 -407 c0 -56 -3 -66 -27 -89 -41 -38 -66 -48 -121 -48 -44 0 -54
4 -76 31 -31 36 -34 87 -8 118 25 31 87 50 165 51 l67 0 0 -63z"/>
<path d="M4448 747 c-114 -33 -185 -134 -158 -226 21 -73 92 -119 240 -156 77
-20 115 -38 124 -60 28 -74 -41 -128 -142 -111 -54 8 -91 39 -106 89 -4 14
-17 17 -76 17 -80 0 -83 -5 -51 -76 78 -171 393 -195 501 -37 17 25 23 47 23
87 0 98 -50 151 -177 186 -162 46 -180 54 -190 81 -14 41 0 75 38 93 68 32
147 10 171 -49 l15 -35 71 0 72 0 -6 36 c-16 95 -106 161 -233 169 -41 3 -88
0 -116 -8z"/>
<path d="M5106 735 c-106 -43 -166 -124 -188 -254 -21 -123 12 -239 89 -313
61 -59 123 -82 223 -83 73 0 93 4 140 27 31 15 69 41 85 58 l29 30 -39 40 -39
40 -25 -24 c-41 -38 -86 -56 -141 -56 -56 0 -93 15 -127 52 -21 23 -53 87 -53
108 0 6 74 10 216 10 l216 0 -4 93 c-6 156 -66 245 -187 281 -75 22 -126 20
-195 -9z m179 -115 c34 -21 50 -48 60 -104 l7 -36 -145 0 -146 0 14 46 c15 49
47 91 80 104 36 15 97 11 130 -10z"/>
<path d="M5840 744 c-19 -8 -47 -27 -62 -41 l-28 -27 0 37 0 37 -70 0 -70 0 0
-330 0 -330 75 0 75 0 0 234 0 234 30 25 c28 24 112 44 150 35 20 -4 28 121 8
133 -20 13 -69 10 -108 -7z"/>
</g>
</svg>
